# xmcd
#
# Track frame offsets: 
#        150
#        13568
#        26633
#        42636
#        54837
#        68018
#        82907
#        99630
#        117871
#        130208
#        144976
#        157181
#        171184
#        186193
#
# Disc length: 2618 seconds
#
# Revision: 0
# Processed by: cddbd v1.5.2PL0 Copyright (c) Steve Scherf et al.
# Submitted via: ExactAudioCopy v0.99pb4
#
DISCID=b70a380e
DTITLE=Pat Bergeson - Country Gentleman: A Tribute To Chet Atkins
DYEAR=2007
DGENRE=Instrumental
TTITLE0=Country Gentleman
TTITLE1=Silver Bell
TTITLE2=Mister Sandman
TTITLE3=Crazy Arms
TTITLE4=Ring Of Fire
TTITLE5=That's All Right
TTITLE6=Please Help Me, I'm Falling (In Love With You)
TTITLE7=Vincent (Starry, Starry Night)
TTITLE8=Snowbird
TTITLE9=Make The World Go Away
TTITLE10=The Bells Of St. Mary's
TTITLE11=Oh Lonesome Me
TTITLE12=Walkin' After Midnight
TTITLE13=Yakety Axe
EXTD=
EXTT0=
EXTT1=
EXTT2=
EXTT3=
EXTT4=
EXTT5=
EXTT6=
EXTT7=
EXTT8=
EXTT9=
EXTT10=
EXTT11=
EXTT12=
EXTT13=
PLAYORDER=
